<?xml version="1.0" encoding="utf-8"?><svg fill="rgb(58, 56, 56)" width="800px" height="800px" viewBox="0 0 24 24" id="document-alert" data-name="Flat Color" xmlns="http://www.w3.org/2000/svg" class="icon flat-color"><path id="primary" d="M19.71,4.29l-2-2A1,1,0,0,0,17,2H6A2,2,0,0,0,4,4V20a2,2,0,0,0,2,2H18a2,2,0,0,0,2-2V5A1,1,0,0,0,19.71,4.29Z" style="fill: rgba(58, 56, 56, 255);"></path><path id="secondary" d="M20,5H18a1,1,0,0,1-1-1V2a1,1,0,0,1,.71.29l2,2A1,1,0,0,1,20,5Zm-8,9a1.5,1.5,0,1,0,1.5,1." style="fill: rgba(236, 124, 48, 255);"></path></svg>