<svg width="36" height="36" xmlns="http://www.w3.org/2000/svg"><g><path d="M20.7488 14.6887 21.0675 13.7438 20.3475 13.0238 19.4025 13.3425C19.1568 13.2041 18.8948 13.097 18.6225 13.0238L18.18 12.1425 17.175 12.1425 16.7288 13.0275C16.4555 13.1014 16.1923 13.2084 15.945 13.3463L15 13.0275 14.28 13.7475 14.58 14.6925C14.4361 14.9368 14.3252 15.1991 14.25 15.4725L13.365 15.915 13.365 16.905 14.25 17.3512C14.3229 17.6236 14.43 17.8857 14.5687 18.1312L14.25 19.0763 15 19.7962 15.945 19.4738C16.1905 19.6135 16.4525 19.7218 16.725 19.7962L17.1675 20.6775 18.1725 20.6775 18.6188 19.8113C18.8865 19.7385 19.1445 19.6339 19.3875 19.5L20.3288 19.8225 21.0487 19.0988 20.73 18.1575C20.8732 17.9101 20.9877 17.6472 21.0712 17.3738L21.9525 16.9313 21.9525 15.915 21.0675 15.4688C20.9959 15.1959 20.8887 14.9337 20.7488 14.6887ZM17.6737 17.925C16.8453 17.925 16.1737 17.2534 16.1737 16.425 16.1737 15.5966 16.8453 14.925 17.6737 14.925 18.4971 14.9371 19.1617 15.6016 19.1737 16.425 19.1737 17.2534 18.5022 17.925 17.6737 17.925Z" fill="#3B3838"/><path d="M20.895 28.0462 14.4412 28.0462C13.8438 28.0815 13.3879 28.5944 13.4231 29.1918 13.4554 29.7402 13.8929 30.1777 14.4412 30.21L20.895 30.21C21.4925 30.1748 21.9483 29.6619 21.9132 29.0644 21.8808 28.516 21.4434 28.0785 20.895 28.0462Z" fill="#3B3838"/><path d="M17.67 33.8737C18.8944 33.8718 19.9123 32.9305 20.01 31.71L15.3263 31.71C15.4257 32.9311 16.4449 33.872 17.67 33.8737Z" fill="#3B3838"/><path d="M27.0337 16.6763 27.0337 16.3538C26.9382 11.2351 22.7781 7.12665 17.6588 7.095L17.6588 7.095C12.5394 7.12665 8.3793 11.2351 8.28375 16.3538L8.28375 16.6763C8.31803 17.7864 8.5386 18.8829 8.93625 19.92 9.31579 20.8985 9.86693 21.8014 10.5638 22.5863 11.4225 23.52 12.36 25.3387 12.7575 26.1488 12.8791 26.3934 13.1293 26.5476 13.4025 26.5462L21.915 26.5462C22.1882 26.5476 22.4384 26.3934 22.56 26.1488 22.9575 25.3387 23.895 23.5238 24.7537 22.5863 25.4506 21.8014 26.0017 20.8985 26.3812 19.92 26.7789 18.8829 26.9995 17.7864 27.0337 16.6763ZM24.8738 16.6425C24.8471 17.5042 24.6786 18.3556 24.375 19.1625 24.0903 19.8891 23.6789 20.5595 23.16 21.1425 22.3276 22.1334 21.614 23.2183 21.0338 24.375L14.2838 24.375C13.7101 23.2153 13.0028 22.1266 12.1763 21.1312 11.6574 20.5483 11.246 19.8779 10.9613 19.1512 10.6513 18.3454 10.4764 17.494 10.4438 16.6312L10.4438 16.3612C10.5109 12.4237 13.7095 9.26014 17.6475 9.23625L17.6475 9.23625C21.5855 9.26014 24.7841 12.4237 24.8512 16.3612Z" fill="#3B3838"/><path d="M17.7413 5.625C18.1555 5.625 18.4913 5.28923 18.4913 4.875L18.4913 2.25C18.4913 1.83579 18.1555 1.5 17.7413 1.5 17.327 1.5 16.9913 1.83579 16.9913 2.25L16.9913 4.875C16.9913 5.28923 17.327 5.625 17.7413 5.625Z" fill="#3B3838"/><path d="M8.8425 8.92125C9.13504 9.21202 9.60746 9.21202 9.9 8.92125 10.1908 8.62871 10.1908 8.15629 9.9 7.86375L8.04375 6C7.73632 5.72242 7.26206 5.74661 6.98445 6.05404 6.726 6.34031 6.72679 6.77591 6.98625 7.06125Z" fill="#3B3838"/><path d="M26.1225 9.285C26.3224 9.28515 26.5141 9.2055 26.655 9.06375L28.5075 7.18875C28.7491 6.8523 28.6723 6.3837 28.3358 6.14209 28.0704 5.95144 27.712 5.95463 27.45 6.15L25.575 8.025C25.2842 8.31754 25.2842 8.78996 25.575 9.0825 25.7227 9.22118 25.9202 9.29422 26.1225 9.285Z" fill="#3B3838"/><path d="M6.09375 15.5625 3.46875 15.5625C3.05454 15.5625 2.71875 15.8983 2.71875 16.3125 2.71875 16.7267 3.05454 17.0625 3.46875 17.0625L6.09375 17.0625C6.50798 17.0625 6.84375 16.7267 6.84375 16.3125 6.84375 15.8983 6.50798 15.5625 6.09375 15.5625Z" fill="#3B3838"/><path d="M8.8425 23.6775 6.98625 25.5525C6.67163 25.8219 6.63499 26.2954 6.90443 26.61 7.17386 26.9246 7.64734 26.9612 7.96193 26.6918 7.99129 26.6667 8.01863 26.6393 8.04375 26.61L9.9 24.735C10.1694 24.4204 10.1328 23.9469 9.81818 23.6775 9.53741 23.437 9.1233 23.437 8.8425 23.6775Z" fill="#3B3838"/><path d="M26.655 23.535C26.3774 23.2276 25.9032 23.2034 25.5957 23.481 25.2883 23.7585 25.2641 24.2328 25.5417 24.5403 25.5582 24.5585 25.5756 24.576 25.5938 24.5925L27.4688 26.4675C27.7339 26.7858 28.2068 26.8288 28.5251 26.5637 28.8433 26.2986 28.8864 25.8257 28.6213 25.5075 28.5853 25.4643 28.5447 25.4253 28.5 25.3913Z" fill="#3B3838"/><path d="M31.875 15.5363 29.25 15.5363C28.8358 15.5363 28.5 15.872 28.5 16.2863 28.5 16.7005 28.8358 17.0363 29.25 17.0363L31.875 17.0363C32.2892 17.0363 32.625 16.7005 32.625 16.2863 32.625 15.872 32.2892 15.5363 31.875 15.5363Z" fill="#3B3838"/></g></svg>