<svg width="37" height="37" xmlns="http://www.w3.org/2000/svg" xmlns:xlink="http://www.w3.org/1999/xlink" xml:space="preserve" overflow="hidden"><g><path d="M32.7604 14.4146C32.1052 12.8344 30.2937 12.1021 28.7135 12.7573 27.4031 13.2969 26.6323 14.6844 26.825 16.0333L21.8531 18.1146C21.3135 17.1896 20.35 16.4958 19.2708 16.3031L19.2708 10.9458C20.5812 10.599 21.5833 9.40417 21.5833 7.97813 21.5833 6.28229 20.1958 4.89479 18.5 4.89479L18.5 4.89479C16.8042 4.89479 15.4167 6.28229 15.4167 7.97813 15.4167 9.40417 16.4187 10.599 17.7292 10.9458L17.7292 16.2646C16.6115 16.4573 15.6865 17.151 15.1469 18.076L10.175 15.9948C10.3677 14.6458 9.63542 13.2583 8.28646 12.7188 6.70625 12.0635 4.89479 12.7958 4.23958 14.376 3.58437 15.9563 4.31667 17.7677 5.89687 18.4229 7.20729 18.9625 8.71042 18.5385 9.51979 17.4208L14.6073 19.5021C14.5687 19.6562 14.5687 19.849 14.5687 20.0031 14.5687 20.851 14.8385 21.6604 15.3396 22.3156L11.3312 26.3625C10.1365 25.6687 8.59479 25.8229 7.59271 26.825 6.39792 28.0198 6.39792 29.9854 7.59271 31.1802 8.7875 32.375 10.7531 32.375 11.9479 31.1802 12.95 30.1781 13.1042 28.6365 12.4104 27.4417L16.4958 23.3562C17.074 23.7031 17.7292 23.8958 18.4229 23.8958 18.4615 23.8958 18.4615 23.8958 18.5 23.8958 18.5385 23.8958 18.5385 23.8958 18.5771 23.8958 19.2708 23.8958 19.926 23.7031 20.5042 23.3562L24.5896 27.4417C23.8958 28.6365 24.05 30.1781 25.0521 31.2188 26.2469 32.4135 28.2125 32.4135 29.4073 31.2188 30.6021 30.024 30.6021 28.0583 29.4073 26.8635 28.4052 25.8615 26.8635 25.7073 25.6687 26.401L21.6604 22.3542C22.1615 21.699 22.4312 20.9281 22.4312 20.0417 22.4312 19.8875 22.4312 19.6948 22.3927 19.5406L27.4802 17.4594C28.2896 18.5385 29.7927 19.001 31.1031 18.4615 32.6448 17.7677 33.4156 15.9948 32.7604 14.4146Z" fill="#3B3838"/></g></svg>